<svg id="visual" viewBox="0 0 900 600" width="900" height="600" xmlns="http://www.w3.org/2000/svg" xmlns:xlink="http://www.w3.org/1999/xlink" version="1.1"><rect x="0" y="0" width="900" height="600" fill="#fff"></rect><defs><linearGradient id="grad1_0" x1="33.3%" y1="0%" x2="100%" y2="100%"><stop offset="20%" stop-color="#ffffff" stop-opacity="1"></stop><stop offset="80%" stop-color="#ffffff" stop-opacity="1"></stop></linearGradient></defs><defs><linearGradient id="grad2_0" x1="0%" y1="0%" x2="66.7%" y2="100%"><stop offset="20%" stop-color="#ffffff" stop-opacity="1"></stop><stop offset="80%" stop-color="#ffffff" stop-opacity="1"></stop></linearGradient></defs><g transform="translate(900, 0)"><path d="M0 378.6C-51.6 375.8 -103.3 373.1 -144.9 349.8C-186.5 326.4 -218.1 282.5 -242.5 242.5C-267 202.5 -284.3 166.4 -305.8 126.7C-327.3 86.9 -352.9 43.4 -378.6 0L0 0Z" fill="#D7E5F4"></path></g><g transform="translate(0, 600)"><path d="M0 -378.6C43.8 -355 87.5 -331.4 129 -311.3C170.4 -291.3 209.5 -274.7 248.9 -248.9C288.3 -223.1 328.1 -187.9 349.8 -144.9C371.4 -101.8 375 -50.9 378.6 0L0 0Z" fill="#D7E5F4"></path></g></svg>